{
	"asset":{
		"generator":"Khronos glTF Blender I/O v3.6.27",
		"version":"2.0"
	},
	"scene":0,
	"scenes":[
		{
			"name":"Scene",
			"nodes":[
				0
			]
		}
	],
	"nodes":[
		{
			"mesh":0,
			"name":"Star.v3"
		}
	],
	"meshes":[
		{
			"name":"Circle.003",
			"primitives":[
				{
					"attributes":{
						"POSITION":0,
						"NORMAL":1,
						"TEXCOORD_0":2
					},
					"indices":3
				}
			]
		}
	],
	"accessors":[
		{
			"bufferView":0,
			"componentType":5126,
			"count":11474,
			"max":[
				0.9027199745178223,
				0.8732578754425049,
				0.26948344707489014
			],
			"min":[
				-0.9027199745178223,
				-0.8887869715690613,
				-0.3274388909339905
			],
			"type":"VEC3"
		},
		{
			"bufferView":1,
			"componentType":5126,
			"count":11474,
			"type":"VEC3"
		},
		{
			"bufferView":2,
			"componentType":5126,
			"count":11474,
			"type":"VEC2"
		},
		{
			"bufferView":3,
			"componentType":5123,
			"count":68832,
			"type":"SCALAR"
		}
	],
	"bufferViews":[
		{
			"buffer":0,
			"byteLength":137688,
			"byteOffset":0,
			"target":34962
		},
		{
			"buffer":0,
			"byteLength":137688,
			"byteOffset":137688,
			"target":34962
		},
		{
			"buffer":0,
			"byteLength":91792,
			"byteOffset":275376,
			"target":34962
		},
		{
			"buffer":0,
			"byteLength":137664,
			"byteOffset":367168,
			"target":34963
		}
	],
	"buffers":[
		{
			"byteLength":504832,
			"uri":"data:application/octet-stream;base64,"
		}
	]
}
