{
	"asset":{
		"generator":"Khronos glTF Blender I/O v3.6.27",
		"version":"2.0"
	},
	"scene":0,
	"scenes":[
		{
			"name":"Scene",
			"nodes":[
				0
			]
		}
	],
	"nodes":[
		{
			"mesh":0,
			"name":"Star.v1"
		}
	],
	"meshes":[
		{
			"name":"Circle.001",
			"primitives":[
				{
					"attributes":{
						"POSITION":0,
						"NORMAL":1,
						"TEXCOORD_0":2
					},
					"indices":3
				}
			]
		}
	],
	"accessors":[
		{
			"bufferView":0,
			"componentType":5126,
			"count":10518,
			"max":[
				0.9027199745178223,
				0.8732578754425049,
				0.2678905129432678
			],
			"min":[
				-0.9027199745178223,
				-0.8887869715690613,
				-0.3258461058139801
			],
			"type":"VEC3"
		},
		{
			"bufferView":1,
			"componentType":5126,
			"count":10518,
			"type":"VEC3"
		},
		{
			"bufferView":2,
			"componentType":5126,
			"count":10518,
			"type":"VEC2"
		},
		{
			"bufferView":3,
			"componentType":5123,
			"count":63096,
			"type":"SCALAR"
		}
	],
	"bufferViews":[
		{
			"buffer":0,
			"byteLength":126216,
			"byteOffset":0,
			"target":34962
		},
		{
			"buffer":0,
			"byteLength":126216,
			"byteOffset":126216,
			"target":34962
		},
		{
			"buffer":0,
			"byteLength":84144,
			"byteOffset":252432,
			"target":34962
		},
		{
			"buffer":0,
			"byteLength":126192,
			"byteOffset":336576,
			"target":34963
		}
	],
	"buffers":[
		{
			"byteLength":462768,
			"uri":"data:application/octet-stream;base64,"
		}
	]
}
